<?xml version="1.0" standalone="no"?>
<!DOCTYPE svg PUBLIC "-//W3C//DTD SVG 20010904//EN"
 "http://www.w3.org/TR/2001/REC-SVG-20010904/DTD/svg10.dtd">
<svg version="1.0" xmlns="http://www.w3.org/2000/svg"
 width="548.000000pt" height="548.000000pt" viewBox="0 0 548.000000 548.000000"
 preserveAspectRatio="xMidYMid meet">
<metadata>
Created by potrace 1.11, written by Peter Selinger 2001-2013
</metadata>
<g transform="translate(0.000000,548.000000) scale(0.100000,-0.100000)"
fill="#000000" stroke="none">
<path d="M239 4480 c-1 -20 -1 -3033 0 -3042 1 -5 120 -8 266 -8 l265 0 -4
943 c-3 518 -7 990 -9 1050 -3 59 -2 107 2 107 3 0 28 -73 54 -163 27 -89 64
-211 82 -272 18 -60 72 -236 118 -390 162 -534 256 -841 312 -1025 31 -102 61
-200 66 -217 l10 -33 264 0 263 0 26 77 c13 43 64 206 111 363 194 638 237
778 255 835 10 33 71 233 135 445 65 212 122 390 128 395 6 7 8 7 4 0 -10 -20
-19 -599 -21 -1352 l-1 -763 266 0 266 0 -1 1532 -1 1533 -383 0 c-248 0 -386
-3 -390 -10 -8 -12 -31 -82 -77 -235 -19 -63 -80 -263 -135 -445 -56 -181
-103 -337 -105 -345 -2 -8 -10 -35 -18 -60 -8 -25 -41 -130 -72 -235 -32 -104
-65 -215 -75 -245 -9 -30 -52 -172 -96 -314 -78 -259 -79 -260 -90 -220 -7 21
-58 190 -113 374 -56 184 -151 497 -211 695 -259 859 -312 1030 -317 1035 -2
3 -177 5 -389 5 -337 0 -384 -1 -385 -15z"/>
<path d="M3415 4490 c-2 -3 -3 -107 -3 -232 l0 -226 347 -1 c190 0 355 0 366
-1 20 0 20 -6 20 -1300 l0 -1300 262 0 c244 0 263 1 264 18 0 9 1 592 1 1295
0 784 4 1280 10 1283 5 3 169 6 364 6 195 -1 354 2 355 6 1 9 1 412 0 437 -1
20 -8 20 -992 20 -545 0 -992 -2 -994 -5z"/>
</g>
</svg>
